<?xml version="1.0" standalone="no"?>
<!DOCTYPE svg PUBLIC "-//W3C//DTD SVG 20010904//EN"
 "http://www.w3.org/TR/2001/REC-SVG-20010904/DTD/svg10.dtd">
<svg version="1.0" xmlns="http://www.w3.org/2000/svg"
 width="1024.000000pt" height="1024.000000pt" viewBox="0 0 1024.000000 1024.000000"
 preserveAspectRatio="xMidYMid meet">

<g transform="translate(0.000000,1024.000000) scale(0.100000,-0.100000)"
fill="#C8F028" stroke="none">
<path d="M4890 7449 c-424 -47 -808 -183 -1149 -409 -444 -293 -796 -748 -956
-1235 -183 -555 -162 -1156 60 -1703 131 -322 325 -607 573 -843 353 -336 724
-459 1096 -365 206 53 380 174 536 376 76 98 143 254 183 425 21 89 21 104 24
1661 4 1819 -12 1608 124 1608 74 0 82 -2 107 -27 l27 -27 0 -1608 c0 -1722 2
-1639 -52 -1867 -86 -362 -316 -676 -591 -803 l-57 -26 55 -9 c104 -17 455
-13 580 6 507 78 954 284 1325 610 168 147 278 273 400 457 242 365 379 781
405 1226 40 693 -200 1332 -680 1815 -341 343 -719 559 -1180 673 -80 19 -190
43 -245 51 -120 19 -466 27 -585 14z m-280 -559 c20 -20 20 -26 18 -1513 l-3
-1492 -26 -82 c-48 -152 -162 -290 -277 -334 -70 -26 -179 -35 -253 -20 -242
50 -538 341 -722 708 -66 130 -147 363 -179 513 -19 92 -22 134 -22 345 0 204
4 258 22 360 48 260 130 473 264 686 159 251 412 496 673 652 121 72 416 196
468 197 9 0 26 -9 37 -20z m1547 -191 c206 -125 412 -306 563 -495 270 -340
422 -838 391 -1280 -23 -321 -123 -637 -285 -903 -128 -211 -327 -435 -492
-555 -125 -91 -265 -176 -289 -176 -51 0 -49 -89 -49 1734 0 936 4 1707 8
1714 15 25 69 12 153 -39z"/>
</g>
</svg>
